#N canvas 216 22 980 804 10;
#X msg 907 59 \; pd dsp 0;
#X msg 905 19 \; pd dsp 1;
#X obj 86 11 netreceive 8888;
#X floatatom 174 52 5 0 0 0 - - -, f 5;
#X obj 85 85 route volume speed0 speed1;
#X floatatom 85 132 5 0 0 0 - - -, f 5;
#X floatatom 188 135 5 0 0 0 - - -, f 5;
#X obj 12 86 print;
#N canvas 0 22 450 278 (subpatch) 0;
#X array channelL 4e+06 float 2;
#X coords 0 1 4e+06 -1 200 140 1;
#X restore 539 26 graph;
#N canvas 0 22 450 278 (subpatch) 0;
#X array channelR 4e+06 float 2;
#X coords 0 1 4e+06 -1 200 140 1;
#X restore 539 183 graph;
#X obj 87 242 bng 15 250 50 0 empty empty empty 17 7 0 10 -262144 -1
-1;
#X obj 87 262 openpanel;
#X msg 88 299 read -resize \$1 channelL channelR;
#X floatatom 142 366 14 0 0 0 - - -, f 14;
#X obj 89 421 expr 44100 / $f1;
#X obj 143 393 s sampleSize;
#X floatatom 274 460 12 0 0 0 - - -, f 12;
#X obj 90 524 phasor~;
#X obj 92 598 *~;
#X obj 140 567 r sampleSize;
#X obj 115 633 tabread4~ channelL;
#X obj 90 663 tabread4~ channelR;
#X obj 87 769 dac~;
#X obj 89 738 *~;
#X obj 126 738 *~;
#X obj 84 199 s volume;
#X obj 141 697 r volume;
#X obj 83 166 expr $f1 / 100;
#X floatatom 259 133 5 0 0 0 - - -, f 5;
#X obj 189 167 s speed0;
#X obj 125 464 r speed0;
#X floatatom 273 588 5 0 0 0 - - -, f 5;
#X obj 89 334 soundfiler -maxsize 8e+06;
#X obj 182 499 expr $f1 * $f2;
#X connect 2 0 4 0;
#X connect 2 0 7 0;
#X connect 2 1 3 0;
#X connect 4 0 5 0;
#X connect 4 1 6 0;
#X connect 4 2 28 0;
#X connect 5 0 27 0;
#X connect 6 0 29 0;
#X connect 10 0 11 0;
#X connect 11 0 12 0;
#X connect 12 0 32 0;
#X connect 13 0 15 0;
#X connect 14 0 16 0;
#X connect 14 0 17 0;
#X connect 16 0 33 1;
#X connect 17 0 18 0;
#X connect 18 0 20 0;
#X connect 18 0 21 0;
#X connect 19 0 18 1;
#X connect 20 0 24 0;
#X connect 21 0 23 0;
#X connect 23 0 22 0;
#X connect 24 0 22 1;
#X connect 26 0 24 1;
#X connect 26 0 23 1;
#X connect 27 0 25 0;
#X connect 30 0 33 0;
#X connect 32 0 13 0;
#X connect 32 0 14 0;
#X connect 33 0 31 0;
#X connect 33 0 17 0;
