#N canvas 171 22 980 804 10;
#X msg 907 59 \; pd dsp 0;
#X msg 905 19 \; pd dsp 1;
#X obj 86 11 netreceive 8888;
#X floatatom 174 52 5 0 0 0 - - -;
#X floatatom 86 130 5 0 0 0 - - -;
#X floatatom 158 138 5 0 0 0 - - -;
#X obj 12 86 print;
#X obj 66 495 *~;
#X obj 86 172 s volume;
#X floatatom 204 139 5 0 0 0 - - -;
#X obj 129 288 bng 15 250 50 0 empty empty empty 17 7 0 10 -262144
-1 -1;
#X obj 128 339 openpanel;
#X obj 290 497 *~;
#X obj 322 289 bng 15 250 50 0 empty empty empty 17 7 0 10 -262144
-1 -1;
#X obj 321 340 openpanel;
#X obj 85 85 route volume speed0 speed1 crossfade;
#X obj 154 626 *~;
#X obj 174 501 r volume;
#X obj 174 702 dac~;
#X obj 110 496 *~;
#X floatatom 255 138 5 0 0 0 - - -;
#X obj 312 160 expr 1 - $f1;
#X obj 237 215 s fade_l;
#X obj 316 215 s fade_r;
#X obj 136 436 r fade_l;
#X obj 330 437 r fade_r;
#X obj 256 496 *~;
#X obj 198 626 *~;
#X floatatom 239 185 5 0 0 0 - - -;
#X floatatom 313 188 5 0 0 0 - - -;
#X obj 76 393 pchannel one;
#X obj 253 393 pchannel two;
#X connect 2 0 6 0;
#X connect 2 0 15 0;
#X connect 2 1 3 0;
#X connect 4 0 8 0;
#X connect 5 0 30 0;
#X connect 7 0 16 0;
#X connect 9 0 31 0;
#X connect 10 0 11 0;
#X connect 11 0 30 1;
#X connect 12 0 27 0;
#X connect 13 0 14 0;
#X connect 14 0 31 1;
#X connect 15 0 4 0;
#X connect 15 1 5 0;
#X connect 15 2 9 0;
#X connect 15 3 20 0;
#X connect 16 0 18 0;
#X connect 17 0 16 1;
#X connect 17 0 27 1;
#X connect 19 0 27 0;
#X connect 20 0 21 0;
#X connect 20 0 28 0;
#X connect 21 0 29 0;
#X connect 24 0 19 1;
#X connect 24 0 7 1;
#X connect 25 0 12 1;
#X connect 25 0 26 1;
#X connect 26 0 16 0;
#X connect 27 0 18 1;
#X connect 28 0 22 0;
#X connect 29 0 23 0;
#X connect 30 0 7 0;
#X connect 30 1 19 0;
#X connect 31 0 26 0;
#X connect 31 1 12 0;
