#N canvas 297 22 1064 791 10;
#X msg 420 62 \; pd dsp 0;
#X msg 418 22 \; pd dsp 1;
#X obj 86 11 netreceive 8888;
#X floatatom 174 52 5 0 0 0 - - -;
#X floatatom 86 130 5 0 0 0 - - -;
#X floatatom 158 138 5 0 0 0 - - -;
#X obj 12 86 print;
#X obj 11 747 *~;
#X obj 86 172 s volume;
#X floatatom 204 139 5 0 0 0 - - -;
#X obj -98 267 bng 15 250 50 0 empty empty empty 17 7 0 10 -262144
-1 -1;
#X obj -99 304 openpanel;
#X obj 331 716 *~;
#X obj 85 85 route volume speed0 speed1 crossfade;
#X obj 195 845 *~;
#X obj 215 720 r volume;
#X obj 215 921 dac~;
#X obj 55 748 *~;
#X floatatom 255 138 5 0 0 0 - - -;
#X obj 350 159 expr 1 - $f1;
#X obj 275 214 s fade_l;
#X obj 354 214 s fade_r;
#X obj 90 680 r fade_l;
#X obj 360 667 r fade_r;
#X obj 297 715 *~;
#X obj 239 845 *~;
#X floatatom 277 184 5 0 0 0 - - -;
#X floatatom 351 187 5 0 0 0 - - -;
#X floatatom 61 473 14 0 0 0 - - -;
#X obj -104 459 expr 44100 / $f1;
#X floatatom -72 494 12 0 0 0 - - -;
#X obj -103 562 phasor~;
#X obj -101 603 *~;
#X obj -104 372 soundfiler -maxsize 8e+06;
#X obj 25 548 expr $f1 * $f2;
#X obj 85 503 r speed0;
#X obj 155 173 s speed0;
#X obj -124 636 tabread4~ chan0L;
#X obj 23 636 tabread4~ chan0R;
#X obj 231 263 bng 15 250 50 0 empty empty empty 17 7 0 10 -262144
-1 -1;
#X obj 230 300 openpanel;
#X floatatom 390 469 14 0 0 0 - - -;
#X obj 225 455 expr 44100 / $f1;
#X floatatom 257 490 12 0 0 0 - - -;
#X obj 226 558 phasor~;
#X obj 228 599 *~;
#X obj 225 368 soundfiler -maxsize 8e+06;
#X obj 354 544 expr $f1 * $f2;
#X obj 205 632 tabread4~ chan1L;
#X obj 352 632 tabread4~ chan1R;
#X obj 414 499 r speed1;
#X obj 215 172 s speed1;
#N canvas 0 22 450 278 (subpatch) 0;
#X array chan0L 9.07578e+06 float 2;
#X coords 0 1 9.07578e+06 -1 200 140 1;
#X restore 540 19 graph;
#N canvas 0 22 450 278 (subpatch) 0;
#X array chan1L 1.18564e+07 float 2;
#X coords 0 1 1.18564e+07 -1 200 140 1 0 0;
#X restore 538 343 graph;
#N canvas 0 22 450 278 (subpatch) 0;
#X array chan0R 9.07578e+06 float 2;
#X coords 0 1 9.07578e+06 -1 200 140 1 0 0;
#X restore 537 177 graph;
#N canvas 0 22 450 278 (subpatch) 0;
#X array chan1R 1.18564e+07 float 2;
#X coords 0 1 1.18564e+07 -1 200 140 1 0 0;
#X restore 537 501 graph;
#X msg -103 337 read -resize \$1 chan0R chan0L;
#X msg 226 333 read -resize \$1 chan1L chan1R;
#X connect 2 0 13 0;
#X connect 2 1 3 0;
#X connect 4 0 8 0;
#X connect 5 0 36 0;
#X connect 7 0 14 0;
#X connect 9 0 51 0;
#X connect 10 0 11 0;
#X connect 11 0 56 0;
#X connect 12 0 25 0;
#X connect 13 0 4 0;
#X connect 13 1 5 0;
#X connect 13 2 9 0;
#X connect 13 3 18 0;
#X connect 14 0 16 0;
#X connect 15 0 14 1;
#X connect 15 0 25 1;
#X connect 17 0 25 0;
#X connect 18 0 19 0;
#X connect 18 0 26 0;
#X connect 19 0 27 0;
#X connect 22 0 17 1;
#X connect 22 0 7 1;
#X connect 23 0 12 1;
#X connect 23 0 24 1;
#X connect 24 0 14 0;
#X connect 25 0 16 1;
#X connect 26 0 20 0;
#X connect 27 0 21 0;
#X connect 28 0 32 1;
#X connect 29 0 30 0;
#X connect 29 0 31 0;
#X connect 30 0 34 1;
#X connect 31 0 32 0;
#X connect 32 0 37 0;
#X connect 32 0 38 0;
#X connect 33 0 28 0;
#X connect 33 0 29 0;
#X connect 34 0 31 0;
#X connect 35 0 34 0;
#X connect 37 0 7 0;
#X connect 38 0 17 0;
#X connect 39 0 40 0;
#X connect 40 0 57 0;
#X connect 41 0 45 1;
#X connect 42 0 43 0;
#X connect 42 0 44 0;
#X connect 43 0 47 1;
#X connect 44 0 45 0;
#X connect 45 0 48 0;
#X connect 45 0 49 0;
#X connect 46 0 41 0;
#X connect 46 0 42 0;
#X connect 47 0 44 0;
#X connect 48 0 24 0;
#X connect 49 0 12 0;
#X connect 50 0 47 0;
#X connect 56 0 33 0;
#X connect 57 0 46 0;
